<?xml version="1.0" encoding="utf-8"?>
<!-- Generator: Adobe Illustrator 15.0.0, SVG Export Plug-In . SVG Version: 6.00 Build 0)  -->
<!DOCTYPE svg PUBLIC "-//W3C//DTD SVG 1.1//EN" "http://www.w3.org/Graphics/SVG/1.1/DTD/svg11.dtd">
<svg version="1.1" xmlns="http://www.w3.org/2000/svg" xmlns:xlink="http://www.w3.org/1999/xlink" x="0px" y="0px"
	 width="34.388px" height="32.822px" viewBox="0 0 34.388 32.822" enable-background="new 0 0 34.388 32.822" xml:space="preserve">
<g id="Layer_1">
	<path fill="#F47E77" d="M33.507,9.736c-0.071-1.586-0.309-2.82-0.769-4.003c-0.45-1.161-1.043-2.07-1.92-2.948
		c-0.878-0.878-1.787-1.471-2.947-1.921c-1.178-0.457-2.411-0.694-4.003-0.767C22.16,0.018,21.589,0,17.193,0
		c-4.395,0-4.965,0.018-6.674,0.097C8.931,0.17,7.697,0.406,6.515,0.864c-1.159,0.45-2.068,1.043-2.946,1.921
		C2.691,3.664,2.097,4.573,1.647,5.734C1.189,6.916,0.953,8.15,0.88,9.735c-0.08,1.732-0.098,2.307-0.098,6.676
		S0.8,21.355,0.88,23.086c0.072,1.586,0.309,2.819,0.767,4.002c0.452,1.162,1.045,2.072,1.922,2.949
		c0.875,0.875,1.784,1.469,2.946,1.92c1.184,0.459,2.418,0.695,4.004,0.768c1.727,0.08,2.301,0.098,6.674,0.098
		c4.375,0,4.949-0.018,6.676-0.098c1.588-0.072,2.822-0.31,4.003-0.768c1.163-0.451,2.072-1.045,2.947-1.92
		c0.877-0.877,1.469-1.786,1.92-2.949c0.46-1.183,0.697-2.416,0.769-4.002c0.08-1.705,0.098-2.275,0.098-6.675
		C33.605,12.012,33.587,11.441,33.507,9.736 M17.193,29.41c-4.329,0-4.836-0.018-6.518-0.094c-1.539-0.07-2.371-0.325-2.922-0.54
		c-0.722-0.279-1.234-0.613-1.772-1.152c-0.54-0.54-0.874-1.053-1.153-1.772c-0.214-0.547-0.469-1.375-0.539-2.922
		c-0.076-1.683-0.094-2.189-0.094-6.519s0.018-4.836,0.094-6.52c0.07-1.545,0.325-2.373,0.54-2.921
		c0.279-0.721,0.613-1.234,1.152-1.772c0.538-0.54,1.051-0.874,1.772-1.152c0.551-0.215,1.381-0.471,2.922-0.54
		c1.699-0.078,2.209-0.095,6.518-0.095c4.311,0,4.82,0.017,6.52,0.095c1.539,0.069,2.37,0.325,2.924,0.54
		c0.72,0.278,1.232,0.612,1.771,1.152c0.539,0.538,0.873,1.051,1.153,1.771c0.214,0.555,0.469,1.39,0.539,2.922
		c0.076,1.706,0.094,2.216,0.094,6.52s-0.018,4.813-0.094,6.519c-0.07,1.535-0.325,2.369-0.539,2.922
		c-0.279,0.72-0.614,1.233-1.153,1.772c-0.538,0.539-1.051,0.873-1.771,1.152c-0.555,0.215-1.388,0.47-2.924,0.54
		C22.031,29.393,21.524,29.41,17.193,29.41"/>
	<path fill="#F47E77" d="M17.193,7.861c-4.713,0-8.548,3.835-8.548,8.55c0,4.714,3.835,8.549,8.548,8.549
		c4.715,0,8.55-3.835,8.55-8.549C25.743,11.696,21.908,7.861,17.193,7.861 M17.193,21.548c-2.831,0-5.135-2.305-5.135-5.137
		c0-2.833,2.304-5.137,5.135-5.137c2.833,0,5.139,2.304,5.139,5.137C22.332,19.243,20.026,21.548,17.193,21.548"/>
	<path fill="#F47E77" d="M19.383,7.784c0-1.208-0.982-2.19-2.189-2.19s-2.189,0.982-2.189,2.19c0,1.207,0.982,2.189,2.189,2.189
		S19.383,8.991,19.383,7.784"/>
</g>
<g id="Layer_2" display="none">
	<path display="inline" fill="#F47E77" d="M21.604,8.266l2.508-0.002c0.414,0,0.749-0.336,0.749-0.75V3.28
		c0-0.376-0.278-0.695-0.651-0.743c-0.377-0.051-1.877-0.194-3.752-0.194c-4.22,0-6.841,2.686-6.841,7.01v2.741h-3.339
		c-0.414,0-0.75,0.336-0.75,0.75v4.734c0,0.416,0.336,0.75,0.75,0.75h3.339v11.4c0,0.414,0.337,0.75,0.75,0.75h4.888
		c0.414,0,0.75-0.336,0.75-0.75v-11.4h3.328c0.377,0,0.696-0.279,0.746-0.653l0.61-4.735c0.026-0.214-0.038-0.429-0.181-0.591
		s-0.348-0.255-0.563-0.255h-3.94V9.821C20.004,8.74,20.156,8.266,21.604,8.266"/>
</g>
<g id="Layer_3" display="none">
	<path display="inline" fill="#F47E77" d="M34.3,5.737c-0.108-0.128-0.286-0.168-0.439-0.102c-0.757,0.336-1.544,0.601-2.351,0.791
		c0.888-0.838,1.555-1.89,1.931-3.065c0.047-0.148-0.002-0.311-0.124-0.407c-0.122-0.099-0.291-0.109-0.425-0.03
		c-1.266,0.75-2.632,1.285-4.064,1.589c-1.359-1.367-3.229-2.146-5.165-2.146c-4.012,0-7.276,3.265-7.276,7.277
		c0,0.389,0.031,0.78,0.094,1.167C11.235,10.416,6.347,7.866,3.008,3.769C2.93,3.674,2.802,3.617,2.688,3.632
		C2.565,3.642,2.455,3.711,2.393,3.816C1.749,4.921,1.407,6.186,1.407,7.476c0,1.981,0.798,3.846,2.185,5.201
		c-0.588-0.136-1.156-0.355-1.684-0.648c-0.111-0.062-0.248-0.062-0.36-0.001c-0.113,0.061-0.187,0.176-0.195,0.304
		c-0.001,0.008-0.003,0.103-0.003,0.112c0,2.897,1.726,5.475,4.279,6.632c-0.475,0.015-0.944-0.026-1.411-0.114
		c-0.131-0.028-0.265,0.02-0.353,0.118c-0.087,0.099-0.116,0.237-0.077,0.363c0.845,2.637,3.097,4.534,5.776,4.963
		c-2.229,1.505-4.818,2.296-7.543,2.296c-0.535,0-1.074-0.031-1.601-0.095c-0.176-0.021-0.34,0.081-0.398,0.245
		c-0.059,0.165,0.004,0.349,0.151,0.443c3.223,2.067,6.951,3.16,10.779,3.16c12.527,0,20.013-10.175,20.013-20.011
		c0-0.237-0.005-0.474-0.014-0.709c1.319-0.981,2.453-2.174,3.372-3.548C34.417,6.048,34.407,5.865,34.3,5.737"/>
</g>
</svg>
