<?xml version="1.0" encoding="utf-8"?>
<!-- Generator: Adobe Illustrator 15.0.0, SVG Export Plug-In . SVG Version: 6.00 Build 0)  -->
<!DOCTYPE svg PUBLIC "-//W3C//DTD SVG 1.1//EN" "http://www.w3.org/Graphics/SVG/1.1/DTD/svg11.dtd">
<svg version="1.1" id="Layer_1" xmlns="http://www.w3.org/2000/svg" xmlns:xlink="http://www.w3.org/1999/xlink" x="0px" y="0px"
	 width="71.499px" height="108.024px" viewBox="0 0 71.499 108.024" enable-background="new 0 0 71.499 108.024"
	 xml:space="preserve">
<g>
	<path fill="#FFFFFF" d="M6.687,82.027c-1.733-0.709-2.44-1.336-2.44-2.179c0-0.477,0.506-1.183,1.596-1.183
		c0.688,0,1.752,0.426,2.949,1.186c0.426,0.286,1.049,0.102,1.375-0.389l0.865-1.296c0.145-0.208,0.195-0.483,0.139-0.755
		c-0.053-0.256-0.201-0.473-0.368-0.57c-0.358-0.27-2.279-1.613-4.822-1.613c-3.82,0-5.559,2.49-5.559,4.805
		c0,3.121,2.602,4.531,4.557,5.322c1.853,0.752,2.645,1.457,2.645,2.359c0,0.77-0.715,1.348-1.665,1.348
		c-0.797,0-1.918-0.467-3.157-1.307L2.76,87.729c-0.159-0.123-0.365-0.191-0.577-0.191c-0.34,0-0.645,0.178-0.812,0.471
		l-0.828,1.425c-0.36,0.64-0.033,0.966,0.19,1.191c0.47,0.442,2.236,1.896,5.316,1.896c3.686,0,5.674-2.546,5.674-4.939
		C11.723,84.469,9.177,83.027,6.687,82.027"/>
	<path fill="#FFFFFF" d="M27.909,75.457h-2.172c-0.469,0-0.849,0.383-0.849,0.85v9.372c0,1.762-1.23,3.038-2.924,3.038
		c-1.681,0-2.9-1.285-2.9-3.059v-9.352c0-0.467-0.382-0.85-0.849-0.85h-2.172c-0.46,0-0.851,0.39-0.851,0.85v9.51
		c0,3.76,2.976,6.703,6.772,6.703c3.811,0,6.795-2.943,6.795-6.703v-9.51C28.759,75.847,28.37,75.457,27.909,75.457"/>
	<path fill="#FFFFFF" d="M50.963,91.994c0.156-0.195,0.209-0.453,0.151-0.717l-2.692-15.343c-0.053-0.417-0.394-0.707-0.824-0.707
		h-0.367c-0.342,0-0.613,0.162-0.764,0.47l-4.689,10.059l-4.691-10.069c-0.145-0.288-0.431-0.459-0.76-0.459H35.96
		c-0.433,0-0.772,0.29-0.82,0.687l-2.725,15.378c-0.038,0.276,0.029,0.532,0.193,0.72c0.156,0.182,0.387,0.281,0.653,0.281h2.057
		c0.393,0,0.771-0.321,0.823-0.696l1.131-7.392l3.529,7.837c0.156,0.307,0.427,0.478,0.761,0.478h0.409
		c0.367,0,0.678-0.209,0.77-0.499l3.479-7.812l1.162,7.438c0.09,0.312,0.412,0.646,0.834,0.646h2.08
		C50.569,92.293,50.807,92.185,50.963,91.994"/>
	<path fill="#FFFFFF" d="M62.506,75.229c-4.754,0-8.623,3.89-8.623,8.669c0,4.835,3.789,8.623,8.623,8.623
		c4.851,0,8.646-3.788,8.646-8.623C71.153,79.118,67.275,75.229,62.506,75.229 M62.506,88.717c-2.658,0-4.819-2.161-4.819-4.819
		c0-2.685,2.161-4.869,4.819-4.869c2.625,0,4.845,2.229,4.845,4.869C67.351,86.556,65.178,88.717,62.506,88.717"/>
	<path fill="#FFFFFF" d="M6.334,96.254c-0.102-0.209-0.274-0.251-0.398-0.251l-0.089-0.002c-0.174,0.002-0.319,0.094-0.4,0.26
		l-2.758,5.962c-0.065,0.141-0.057,0.3,0.024,0.424s0.22,0.2,0.378,0.2h0.771c0.23,0,0.428-0.136,0.51-0.34l0.36-0.794l2.291,0.002
		l0.366,0.799c0.071,0.143,0.199,0.333,0.505,0.333h0.77c0.158,0,0.298-0.073,0.378-0.2c0.081-0.124,0.09-0.281,0.026-0.422
		L6.334,96.254z M5.236,100.369l0.635-1.422l0.647,1.422H5.236z"/>
	<path fill="#FFFFFF" d="M23.488,96.088h-0.843c-0.244,0.002-0.445,0.201-0.445,0.446v3.632c0,0.615-0.428,1.062-1.018,1.062
		c-0.592,0-1.007-0.44-1.006-1.072v-3.621c0-0.245-0.199-0.446-0.446-0.446l-0.842,0.002c-0.24-0.002-0.444,0.201-0.444,0.442
		l-0.001,3.688c0,1.52,1.203,2.712,2.741,2.712c1.541,0.002,2.748-1.192,2.748-2.712v-3.686
		C23.933,96.293,23.729,96.088,23.488,96.088"/>
	<path fill="#FFFFFF" d="M36.625,96.09h-2.098c-0.242,0-0.438,0.199-0.438,0.445l-0.001,5.865c0.001,0.245,0.196,0.444,0.439,0.444
		l2.097,0.002c1.87-0.002,3.389-1.519,3.389-3.388C40.012,97.602,38.494,96.09,36.625,96.09 M36.519,101.211h-0.734v-3.494h0.735
		c0.995,0,1.715,0.732,1.715,1.74C38.235,100.473,37.514,101.211,36.519,101.211"/>
	<path fill="#FFFFFF" d="M51.112,96.096h-0.826c-0.237,0-0.444,0.205-0.443,0.445l-0.001,5.865c0,0.244,0.205,0.445,0.444,0.447
		l0.826-0.002c0.241,0.002,0.444-0.201,0.443-0.445l0.002-5.861C51.556,96.301,51.352,96.096,51.112,96.096"/>
	<path fill="#FFFFFF" d="M64.344,96.008c-1.908,0.002-3.461,1.561-3.459,3.479c-0.002,1.938,1.519,3.457,3.459,3.459
		c1.91-0.002,3.465-1.555,3.465-3.459C67.809,97.568,66.258,96.01,64.344,96.008 M64.344,101.238
		c-0.969-0.002-1.754-0.787-1.754-1.752c0-0.978,0.785-1.772,1.754-1.77c0.953,0,1.761,0.811,1.758,1.77
		C66.104,100.451,65.315,101.238,64.344,101.238"/>
	<path fill="#FFFFFF" d="M4.539,39.612c0.075,0,0.152-0.005,0.228-0.019c0.754-0.124,1.265-0.837,1.14-1.592
		c-0.27-1.632-0.408-3.311-0.408-4.982c0-6.221,1.887-12.007,5.119-16.818v17.54c0,0.612,0.495,1.106,1.107,1.106
		c0.613,0,1.107-0.494,1.107-1.106c0-4.015,1.052-7.964,3.042-11.419c0.241-0.419,0.175-0.926-0.122-1.273
		c-0.08-0.091-0.173-0.176-0.285-0.239c-0.53-0.307-1.206-0.124-1.511,0.406c-0.411,0.715-0.785,1.446-1.124,2.196V8.548l10.9,3.117
		c-0.819,0.446-1.615,0.938-2.385,1.477l-4.163-1.191c-0.587-0.168-1.201,0.171-1.37,0.759c-0.168,0.586,0.173,1.201,0.76,1.37
		l2.623,0.75c-0.276,0.241-0.547,0.489-0.814,0.742c-0.442,0.422-0.457,1.123-0.034,1.563c0.217,0.23,0.507,0.343,0.799,0.343
		c0.276,0,0.55-0.102,0.766-0.308c1.773-1.696,3.779-3.072,5.94-4.106v0.617v6.077c0,0.612,0.497,1.107,1.108,1.107
		c0.611,0,1.107-0.495,1.107-1.107v-6.966v-0.654c1.389-0.492,2.827-0.85,4.299-1.07c0.66-0.097,1.326-0.164,1.998-0.202v12.169
		c0,0.763,0.62,1.382,1.383,1.382c0.765,0,1.385-0.619,1.385-1.382V10.866c0.672,0.038,1.337,0.105,1.997,0.202
		c1.478,0.22,2.923,0.583,4.316,1.078v0.653v6.959c0,0.612,0.497,1.107,1.108,1.107c0.61,0,1.106-0.495,1.106-1.107v-6.07v-0.616
		c2.154,1.035,4.155,2.406,5.922,4.098c0.218,0.206,0.492,0.308,0.768,0.308c0.292,0,0.583-0.113,0.8-0.343
		c0.423-0.44,0.407-1.141-0.036-1.563c-0.271-0.262-0.551-0.513-0.832-0.762l2.553-0.73c0.586-0.169,0.927-0.784,0.759-1.37
		c-0.167-0.588-0.778-0.927-1.369-0.759l-4.099,1.174c-0.76-0.532-1.547-1.017-2.355-1.458l10.895-3.119v14.866
		c-0.336-0.75-0.711-1.483-1.123-2.198c-0.305-0.53-0.98-0.713-1.512-0.406c-0.113,0.063-0.203,0.145-0.283,0.239
		c-0.299,0.347-0.364,0.854-0.123,1.273c1.99,3.457,3.041,7.404,3.041,11.419c0,0.612,0.496,1.106,1.108,1.106
		s1.106-0.494,1.106-1.106V16.203c3.232,4.811,5.117,10.598,5.117,16.816c0,1.671-0.135,3.347-0.405,4.982
		c-0.126,0.755,0.386,1.468,1.139,1.592c0.757,0.127,1.468-0.387,1.591-1.138c0.295-1.787,0.447-3.615,0.447-5.436
		c0-8.149-2.977-15.614-7.889-21.38v-4.56c0-0.347-0.162-0.675-0.441-0.884c-0.277-0.209-0.638-0.275-0.97-0.181L56.04,6.997
		C50.436,2.619,43.395,0,35.749,0c-7.645,0-14.685,2.619-20.286,6.997L12.03,6.014c-0.334-0.094-0.693-0.028-0.97,0.181
		c-0.278,0.209-0.442,0.537-0.442,0.884v4.558C5.705,17.403,2.73,24.868,2.73,33.019c0,1.823,0.15,3.654,0.446,5.436
		C3.288,39.131,3.876,39.612,4.539,39.612 M35.749,2.768c6.267,0,12.096,1.915,16.929,5.191l-7.988,2.286
		c-2.824-1.072-5.842-1.641-8.941-1.641c-3.094,0-6.109,0.567-8.931,1.639l-7.994-2.286C23.658,4.683,29.485,2.768,35.749,2.768"/>
	<path fill="#FFFFFF" d="M53.86,57.254c-5.26,3.938-11.521,6.017-18.11,6.017c-6.587,0-12.85-2.081-18.11-6.019
		c-0.611-0.457-1.479-0.334-1.937,0.28c-0.458,0.612-0.334,1.478,0.278,1.937c5.742,4.299,12.578,6.568,19.769,6.568
		c7.19,0,14.026-2.27,19.769-6.568c0.611-0.457,0.735-1.324,0.278-1.937C55.338,56.92,54.471,56.795,53.86,57.254"/>
	<path fill="#FFFFFF" d="M17.444,53.906c0.167,0.423,0.576,0.699,1.031,0.701c0.455,0,0.862-0.276,1.028-0.698l1.41-3.553
		l1.157,2.134c0.196,0.356,0.569,0.58,0.975,0.58h1.685c0.404,6.096,6.271,6.099,11.019,6.099c4.742,0,10.598-0.003,11.02-6.069
		h1.688c0.406,0,0.779-0.219,0.975-0.578l1.156-2.136l1.41,3.554c0.17,0.42,0.576,0.695,1.029,0.695
		c0.456,0,0.862-0.277,1.031-0.697l1.207-3.061l1.292,3.583c0.157,0.438,0.573,0.731,1.039,0.731h0.002
		c0.465,0,0.882-0.293,1.042-0.731l1.441-3.99l1.112,2.052c0.195,0.359,0.569,0.578,0.974,0.578h4.424
		c0.611,0,1.107-0.494,1.107-1.105s-0.496-1.109-1.107-1.109h-3.764l-1.973-3.637c-0.209-0.384-0.624-0.61-1.055-0.576
		c-0.434,0.03-0.811,0.316-0.957,0.726l-1.243,3.429l-1.247-3.459c-0.154-0.435-0.564-0.725-1.025-0.732
		c-0.453-0.009-0.877,0.272-1.045,0.699l-1.259,3.187l-1.253-3.157c-0.158-0.399-0.535-0.67-0.963-0.695
		c-0.426-0.024-0.834,0.199-1.04,0.578l-1.972,3.637H41.34c-0.012,0-0.023-0.002-0.032-0.002c-2.083,0-4.312-1.153-4.438-3.674
		l2.785-5.059c0.188-0.342,0.182-0.759-0.018-1.097c-0.198-0.337-0.561-0.544-0.953-0.544h-4.81v-7.26
		c0-3.814-3.1-6.914-6.912-6.914s-6.914,3.1-6.914,6.914c0,0.612,0.495,1.108,1.106,1.108c0.613,0,1.108-0.496,1.108-1.108
		c0-2.006,1.266-3.72,3.039-4.392v4.392c0,0.917,0.744,1.662,1.661,1.662s1.661-0.745,1.661-1.662v-4.39
		c1.771,0.673,3.038,2.384,3.038,4.39v8.276c0,0.213,0.063,0.41,0.167,0.578c0.007,0.015,0.009,0.033,0.018,0.047l2.784,5.056
		c-0.141,2.501-2.362,3.647-4.437,3.647c-0.01,0-0.021,0.002-0.032,0.002h-6.457l-1.972-3.638c-0.204-0.379-0.61-0.602-1.04-0.579
		c-0.427,0.027-0.802,0.298-0.962,0.7l-1.252,3.154l-1.259-3.188c-0.168-0.426-0.57-0.698-1.046-0.701
		c-0.461,0.008-0.869,0.298-1.026,0.732l-1.246,3.46l-1.241-3.427c-0.147-0.41-0.523-0.694-0.958-0.728
		c-0.429-0.03-0.849,0.195-1.056,0.576l-1.972,3.638H4.908c-0.611,0-1.105,0.497-1.105,1.109c0,0.608,0.494,1.106,1.105,1.106h4.425
		c0.406,0,0.779-0.224,0.972-0.58l1.113-2.05l1.445,3.989c0.157,0.439,0.575,0.732,1.041,0.732h0.001
		c0.466,0,0.882-0.296,1.04-0.734l1.291-3.582L17.444,53.906z M30.249,53.07c0.032,0,0.062-0.008,0.096-0.01
		c1.057-0.019,2.03-0.231,2.886-0.606c0.505,0.886,1.448,1.493,2.536,1.493c1.075,0,2.008-0.59,2.519-1.453
		c0.854,0.369,1.821,0.578,2.875,0.599c0.031,0,0.061,0.007,0.092,0.007h3.298c-0.312,3.475-3.034,3.854-8.801,3.854
		c-5.78,0-8.502-0.386-8.799-3.884H30.249z"/>
	<path fill="#FFFFFF" d="M9.333,44.351c0.442,0,0.843-0.265,1.017-0.67l1.145-2.67l1.359,4.027c0.15,0.445,0.566,0.748,1.038,0.752
		h0.012c0.465,0,0.882-0.291,1.04-0.731l1.245-3.448l1.245,3.448c0.153,0.424,0.548,0.715,1,0.731h0.041
		c0.436,0,0.832-0.255,1.01-0.654l1.434-3.209l1.186,1.902c0.203,0.325,0.557,0.522,0.94,0.522h4.003
		c0.611,0,1.107-0.497,1.107-1.106c0-0.612-0.496-1.109-1.107-1.109H23.66l-1.962-3.142c-0.218-0.35-0.611-0.549-1.016-0.521
		c-0.408,0.028-0.766,0.278-0.935,0.653l-1.162,2.6l-1.355-3.752c-0.158-0.441-0.574-0.731-1.041-0.731
		c-0.466,0-0.881,0.29-1.042,0.731l-1.209,3.352l-1.27-3.762c-0.148-0.437-0.547-0.734-1.006-0.753
		c-0.456-0.014-0.88,0.249-1.06,0.671l-1.999,4.654H1.107C0.496,42.136,0,42.633,0,43.245c0,0.609,0.496,1.106,1.107,1.106H9.333z"
		/>
	<path fill="#FFFFFF" d="M70.393,42.169h-7.494l-1.998-4.657c-0.18-0.422-0.604-0.685-1.062-0.671
		c-0.457,0.019-0.855,0.319-1.004,0.753l-1.268,3.763l-1.213-3.356c-0.156-0.437-0.574-0.728-1.041-0.728s-0.883,0.291-1.041,0.728
		l-1.355,3.755l-1.163-2.599c-0.17-0.373-0.524-0.626-0.935-0.652c-0.41-0.032-0.799,0.172-1.014,0.518l-1.961,3.146h-3.389
		c-0.611,0-1.107,0.494-1.107,1.105c0,0.613,0.496,1.107,1.107,1.107h4.004c0.381,0,0.737-0.196,0.939-0.521l1.183-1.9l1.437,3.206
		c0.18,0.401,0.574,0.656,1.01,0.656c0.014,0,0.029,0,0.041-0.002c0.453-0.016,0.849-0.304,1-0.729l1.244-3.449l1.244,3.449
		c0.162,0.443,0.6,0.753,1.056,0.73c0.469-0.007,0.885-0.306,1.036-0.752l1.357-4.026l1.146,2.667
		c0.175,0.407,0.574,0.67,1.015,0.67h8.226c0.61,0,1.105-0.494,1.105-1.107C71.499,42.664,71.003,42.169,70.393,42.169"/>
	<path fill="#FFFFFF" d="M23.986,47.555c0,0.611,0.496,1.106,1.106,1.106h4.197c0.613,0,1.109-0.495,1.109-1.106
		c0-0.612-0.496-1.106-1.109-1.106h-4.197C24.482,46.449,23.986,46.943,23.986,47.555"/>
	<path fill="#FFFFFF" d="M3.071,46.449c-0.611,0-1.106,0.494-1.106,1.106c0,0.612,0.495,1.107,1.106,1.107h4.247
		c0.611,0,1.108-0.495,1.108-1.107c0-0.612-0.497-1.106-1.108-1.106H3.071z"/>
	<path fill="#FFFFFF" d="M41.137,47.585c0,0.611,0.496,1.108,1.106,1.108h4.2c0.607,0,1.105-0.497,1.105-1.108
		c0-0.609-0.498-1.106-1.105-1.106h-4.2C41.633,46.479,41.137,46.977,41.137,47.585"/>
	<path fill="#FFFFFF" d="M68.461,48.694c0.611,0,1.107-0.497,1.107-1.108c0-0.61-0.496-1.107-1.107-1.107h-4.242
		c-0.611,0-1.108,0.497-1.108,1.107c0,0.611,0.497,1.108,1.108,1.108H68.461z"/>
	<path fill="#FFFFFF" d="M44.54,34.911c0.918,0,1.66-0.745,1.66-1.662v-4.392c1.774,0.672,3.039,2.386,3.039,4.392
		c0,0.612,0.496,1.108,1.106,1.108s1.108-0.496,1.108-1.108c0-3.814-3.103-6.914-6.914-6.914c-3.813,0-6.914,3.1-6.914,6.914
		c0,0.612,0.496,1.108,1.106,1.108c0.614,0,1.108-0.496,1.108-1.108c0-2.006,1.266-3.717,3.039-4.39v4.39
		C42.879,34.166,43.622,34.911,44.54,34.911"/>
</g>
</svg>
