<?xml version="1.0" encoding="utf-8"?>
<!-- Generator: Adobe Illustrator 15.0.0, SVG Export Plug-In . SVG Version: 6.00 Build 0)  -->
<!DOCTYPE svg PUBLIC "-//W3C//DTD SVG 1.1//EN" "http://www.w3.org/Graphics/SVG/1.1/DTD/svg11.dtd">
<svg version="1.1" id="Layer_1" xmlns="http://www.w3.org/2000/svg" xmlns:xlink="http://www.w3.org/1999/xlink" x="0px" y="0px"
	 width="123.76px" height="123.762px" viewBox="0 0 123.76 123.762" enable-background="new 0 0 123.76 123.762"
	 xml:space="preserve">
<g>
	<path fill="#FFFFFF" d="M95.504,57.168L45.772,28.451c-1.936-1.117-4.321-1.118-6.256,0c-1.936,1.119-3.128,3.184-3.128,5.418
		v57.433c0,2.235,1.192,4.3,3.128,5.418c0.967,0.559,2.047,0.837,3.127,0.837c1.081,0,2.16-0.278,3.129-0.837l49.732-28.716
		c1.938-1.119,3.129-3.184,3.129-5.418S97.442,58.286,95.504,57.168"/>
	<path fill="#FFFFFF" d="M61.881,0C27.76,0,0,27.76,0,61.881s27.76,61.881,61.881,61.881c34.12,0,61.879-27.76,61.879-61.881
		S96,0,61.881,0 M61.881,115.42c-29.521,0-53.539-24.018-53.539-53.539S32.36,8.342,61.881,8.342s53.538,24.018,53.538,53.539
		S91.402,115.42,61.881,115.42"/>
</g>
</svg>
